<?xml version="1.0" standalone="no"?>
<!DOCTYPE svg PUBLIC "-//W3C//DTD SVG 20010904//EN"
 "http://www.w3.org/TR/2001/REC-SVG-20010904/DTD/svg10.dtd">
<svg version="1.0" xmlns="http://www.w3.org/2000/svg"
 width="360.000000pt" height="397.000000pt" viewBox="0 0 360.000000 397.000000"
 preserveAspectRatio="xMidYMid meet">

<g transform="translate(0.000000,397.000000) scale(0.100000,-0.100000)"
fill="#000000" stroke="none">
<path d="M3465 3939 c-151 -37 -66 -18 -1240 -278 -550 -123 -1019 -232 -1043
-243 -26 -12 -54 -36 -70 -61 l-27 -41 -3 -1232 -2 -1232 -50 19 c-83 31 -140
41 -252 40 -316 0 -631 -180 -745 -426 -22 -49 -27 -74 -28 -140 0 -68 4 -89
28 -137 107 -219 484 -273 815 -117 169 78 298 196 361 329 l36 75 5 1036 5
1035 25 36 c30 45 89 84 155 103 27 9 434 101 905 206 470 104 865 192 878
196 l22 5 0 -836 c0 -460 -2 -836 -4 -836 -2 0 -24 9 -48 20 -25 11 -89 27
-143 36 -84 14 -112 15 -199 5 -318 -38 -598 -229 -676 -462 -41 -121 -10
-253 77 -330 44 -38 134 -83 203 -100 84 -21 277 -16 373 9 279 76 495 250
557 449 20 64 20 91 20 1298 0 1400 -6 1300 81 1387 31 31 59 49 83 53 l36 7
0 79 c0 44 -3 79 -7 78 -5 -1 -62 -14 -128 -30z"/>
</g>
</svg>
